HIERARCHY
ROOT root
{
	OFFSET 0.000000 0.000000 0.000000
	CHANNELS 6 Xposition Yposition Zposition Zrotation Yrotation Xrotation
	JOINT lhip
	{
		OFFSET 0.058581 -0.082280 -0.017664
		CHANNELS 3 Zrotation Yrotation Xrotation
		JOINT lknee
		{
			OFFSET 0.043451 -0.386469 0.008037
			CHANNELS 3 Zrotation Yrotation Xrotation
			JOINT lankle
			{
				OFFSET -0.014790 -0.426874 -0.037428
				CHANNELS 3 Zrotation Yrotation Xrotation
				JOINT ltoe
				{
					OFFSET 0.041054 -0.060286 0.122042
					CHANNELS 3 Zrotation Yrotation Xrotation
					End Site
					{
						OFFSET 0.000000 0.000000 0.000000
					}
				}
			}
		}
	}
	JOINT rhip
	{
		OFFSET -0.060310 -0.090513 -0.013543
		CHANNELS 3 Zrotation Yrotation Xrotation
		JOINT rknee
		{
			OFFSET -0.043257 -0.383688 -0.004843
			CHANNELS 3 Zrotation Yrotation Xrotation
			JOINT rankle
			{
				OFFSET 0.019056 -0.420046 -0.034562
				CHANNELS 3 Zrotation Yrotation Xrotation
				JOINT rtoe
				{
					OFFSET -0.034840 -0.062106 0.130323
					CHANNELS 3 Zrotation Yrotation Xrotation
					End Site
					{
						OFFSET 0.000000 0.000000 0.000000
					}
				}
			}
		}
	}
	JOINT lowerback
	{
		OFFSET 0.004439 0.124404 -0.038385
		CHANNELS 3 Zrotation Yrotation Xrotation
		JOINT upperback
		{
			OFFSET 0.004488 0.137956 0.026820
			CHANNELS 3 Zrotation Yrotation Xrotation
			JOINT chest
			{
				OFFSET -0.002265 0.056032 0.002855
				CHANNELS 3 Zrotation Yrotation Xrotation
				JOINT lowerneck
				{
					OFFSET -0.013390 0.211636 -0.033468
					CHANNELS 3 Zrotation Yrotation Xrotation
					JOINT upperneck
					{
						OFFSET 0.010113 0.088937 0.050410
						CHANNELS 3 Zrotation Yrotation Xrotation
						End Site
						{
							OFFSET 0.000000 0.000000 0.000000
						}
					}
				}
				JOINT lclavicle
				{
					OFFSET 0.071702 0.114000 -0.018898
					CHANNELS 3 Zrotation Yrotation Xrotation
					JOINT lshoulder
					{
						OFFSET 0.122921 0.045205 -0.019046
						CHANNELS 3 Zrotation Yrotation Xrotation
						JOINT lelbow
						{
							OFFSET 0.255332 -0.015649 -0.022946
							CHANNELS 3 Zrotation Yrotation Xrotation
							JOINT lwrist
							{
								OFFSET 0.265709 0.012698 -0.007375
								CHANNELS 3 Zrotation Yrotation Xrotation
								End Site
								{
									OFFSET 0.000000 0.000000 0.000000
								}
							}
						}
					}
				}
				JOINT rclavicle
				{
					OFFSET -0.082954 0.112472 -0.023707
					CHANNELS 3 Zrotation Yrotation Xrotation
					JOINT rshoulder
					{
						OFFSET -0.113228 0.046853 -0.008472
						CHANNELS 3 Zrotation Yrotation Xrotation
						JOINT relbow
						{
							OFFSET -0.260127 -0.014369 -0.031269
							CHANNELS 3 Zrotation Yrotation Xrotation
							JOINT rwrist
							{
								OFFSET -0.269108 0.006794 -0.006027
								CHANNELS 3 Zrotation Yrotation Xrotation
								End Site
								{
									OFFSET 0.000000 0.000000 0.000000
								}
							}
						}
					}
				}
			}
		}
	}
}
MOTION
Frames: 17
Frame Time: 0.033333
0.000478 0.211114 1.004805 97.259854 0.730597 89.435802 3.735030 0.499283 -2.374715 0.809823 -9.430623 1.420679 0.264199 5.930668 -2.930977 0.000000 -0.000000 0.000000 -1.280131 -4.756588 0.752114 -2.088323 -0.311368 -0.974691 2.893960 -6.651294 -1.553521 0.000000 -0.000000 0.000000 0.563499 2.515844 3.028754 -0.572187 -3.462700 4.616594 -0.467938 -1.481731 -1.454432 -0.703281 -11.340705 -0.432482 7.608308 -10.530153 -4.834320 -23.109437 -7.292983 6.664591 -56.786060 -10.847386 13.843910 5.664166 -29.987896 19.821460 -0.105213 -5.105503 6.478667 18.539397 11.017094 4.849250 60.954318 6.499607 14.235359 -5.570676 22.049301 12.638064 13.078417 2.976061 -3.699457 
0.001449 0.211014 1.004513 96.786093 0.798654 89.398459 3.830597 0.728142 -2.148309 0.825104 -9.223622 1.312733 0.141447 6.018365 -2.937515 0.000000 -0.000000 0.000000 -1.189686 -4.630427 0.764983 -2.158285 -0.135936 -0.957334 3.094926 -6.499667 -1.507813 0.000000 -0.000000 0.000000 0.501259 2.436238 3.093977 -0.666076 -3.320667 4.249930 -0.445390 -1.397456 -1.200009 -0.753899 -11.249297 -0.253094 7.537073 -10.281871 -4.798293 -23.057408 -7.443182 6.622560 -57.045413 -10.664334 13.892378 6.004733 -29.451620 19.359265 -0.188900 -5.151279 6.530685 18.584103 11.030105 4.842101 61.059889 6.363092 14.261313 -5.740742 21.821650 12.448712 13.155670 3.168738 -3.609279 
0.002660 0.210875 1.004478 96.247426 0.889357 89.335646 3.953172 0.954427 -1.781832 0.869185 -9.039727 1.064334 0.107672 6.159304 -2.948154 0.000000 -0.000000 0.000000 -1.094816 -4.468993 0.797861 -2.145178 0.090482 -0.886514 3.111729 -6.379485 -1.513210 0.000000 -0.000000 0.000000 0.423918 2.363487 2.890524 -0.722209 -3.203732 4.486005 -0.421669 -1.311252 -1.255868 -0.796657 -11.252053 -0.085038 7.499707 -10.164532 -4.823875 -23.161438 -7.323393 6.674409 -57.316218 -10.493576 13.709069 6.762914 -28.818035 19.087516 -0.604068 -4.873917 6.266583 18.629181 11.052512 4.990798 61.074664 6.484457 14.128458 -5.731824 21.664822 12.635146 13.469757 3.211762 -4.014678 
0.004054 0.210855 1.004323 95.931744 0.984114 89.312757 4.079822 1.093060 -1.520338 0.891114 -8.936647 0.900307 0.115373 6.231216 -3.029056 0.000000 -0.000000 0.000000 -1.017731 -4.435521 0.851588 -2.113821 0.267754 -0.852672 3.112450 -6.289155 -1.595201 0.000000 -0.000000 0.000000 0.385842 2.292807 2.850272 -0.747758 -3.237189 4.437186 -0.425186 -1.356059 -1.306237 -0.848733 -11.083691 0.019213 7.389005 -9.835976 -4.688684 -23.204334 -7.182451 6.743961 -57.477185 -10.174084 13.467537 7.106417 -27.712753 18.861899 -0.536262 -4.679065 6.276349 18.664646 10.953265 5.031135 61.164464 6.327379 14.233430 -5.761424 21.805856 12.826814 13.089956 3.298060 -3.985027 
0.004976 0.210796 1.004148 95.775280 1.047336 89.226354 4.149551 1.127585 -1.319531 0.938263 -8.858931 0.890174 0.016216 6.251058 -2.998791 0.000000 -0.000000 0.000000 -0.943700 -4.393981 1.011326 -2.147296 0.347489 -0.921074 3.112651 -6.231437 -1.594025 0.000000 -0.000000 0.000000 0.388750 2.285703 2.886688 -0.761010 -3.268550 4.471835 -0.436601 -1.403659 -1.340278 -0.826877 -10.932924 0.021903 7.302615 -9.687200 -4.705996 -23.228034 -7.100220 6.850345 -57.512174 -9.982101 13.281688 7.279459 -26.869575 19.031310 -0.708757 -4.878000 6.074971 18.624756 10.871160 5.075228 61.287010 6.369125 14.263155 -5.754575 21.830546 13.113410 12.912060 3.475872 -4.208597 
0.006191 0.210751 1.004058 95.577466 1.121118 89.158465 4.241983 1.224498 -1.064466 0.969624 -8.781711 0.775591 -0.070341 6.331122 -3.050725 0.000000 -0.000000 0.000000 -0.871876 -4.338814 1.125404 -2.147551 0.417651 -0.881021 3.193745 -6.210509 -1.648534 0.000000 -0.000000 0.000000 0.353954 2.264231 2.848184 -0.773230 -3.300870 4.483408 -0.419830 -1.364367 -1.280756 -0.798834 -10.791539 -0.047224 7.288471 -9.567077 -4.730199 -23.254612 -6.991754 6.866485 -57.568093 -9.668673 13.062171 7.518766 -25.655468 18.954675 -0.585694 -5.178495 6.202246 18.565430 10.712992 4.990205 61.391425 6.303205 14.291109 -5.663017 21.980690 13.475932 12.874681 3.614557 -4.408237 
0.007002 0.210904 1.003853 95.457807 1.142455 89.208224 4.262271 1.453328 -1.061448 0.983452 -8.856443 0.815317 -0.117665 6.309198 -3.087396 0.000000 -0.000000 0.000000 -0.887735 -4.349891 1.017196 -2.096296 0.487087 -0.689560 3.096714 -6.164158 -1.734799 0.000000 -0.000000 0.000000 0.187757 2.194558 2.718651 -0.746890 -3.265996 4.505709 -0.341193 -1.324628 -1.323184 -0.773426 -10.716393 -0.034901 7.318379 -9.449949 -4.713289 -23.159576 -6.829972 6.877155 -57.746844 -9.333761 12.833658 7.503728 -24.323668 18.731292 -0.440531 -4.778125 6.178844 18.540127 10.628808 5.058624 61.381476 6.272717 14.292079 -5.402727 22.076046 13.689760 12.716425 3.565393 -4.642718 
0.008082 0.211101 1.003696 95.339951 1.206442 89.171306 4.325619 1.660486 -0.908111 1.027753 -8.888856 0.753417 -0.227618 6.369389 -3.148241 0.000000 -0.000000 0.000000 -0.825281 -4.299200 1.127925 -2.074613 0.641660 -0.701465 3.058546 -6.212954 -1.839525 0.000000 -0.000000 0.000000 0.145180 2.143935 2.644660 -0.764444 -3.228017 4.590435 -0.316791 -1.322824 -1.318649 -0.621961 -10.698123 -0.038478 7.320338 -9.289040 -4.795421 -23.331767 -6.687571 6.983831 -57.607829 -9.062528 12.431614 7.750603 -23.125511 18.561860 -0.575656 -4.711172 6.200435 18.604721 10.620569 5.111331 61.420359 6.281219 14.355711 -5.271408 22.083547 13.921251 12.526879 3.644540 -4.769966 
0.009016 0.211203 1.003607 95.199856 1.241024 89.212724 4.356931 1.835220 -0.899131 1.019336 -8.998867 0.850327 -0.231762 6.413041 -3.182519 0.000000 -0.000000 0.000000 -0.785456 -4.264283 1.050658 -2.071175 0.736450 -0.531549 3.004898 -6.248679 -1.962127 0.000000 -0.000000 0.000000 0.058204 2.143097 2.461764 -0.748623 -3.135800 4.718963 -0.274008 -1.311212 -1.297663 -0.527093 -10.645029 -0.080906 7.325727 -9.157517 -4.930649 -23.435506 -6.609505 7.136971 -57.513997 -8.682680 12.113602 7.947520 -22.230318 18.495124 -0.918667 -4.298493 5.879622 18.650625 10.655027 5.231438 61.513981 6.305312 14.331593 -5.360842 22.241310 14.102091 12.754874 3.531557 -5.060627 
0.009897 0.211405 1.003474 95.038343 1.303041 89.173709 4.398631 1.841189 -0.770761 1.055766 -8.954954 0.875878 -0.190621 6.511964 -3.238639 0.000000 -0.000000 0.000000 -0.730137 -4.243358 1.129048 -2.070616 0.817252 -0.527517 2.950668 -6.212494 -1.979299 0.000000 -0.000000 0.000000 0.046004 2.175642 2.618106 -0.758342 -3.102949 4.713944 -0.209469 -1.238197 -1.335455 -0.520994 -10.718018 -0.192610 7.393778 -9.036257 -5.166842 -23.431607 -6.353421 7.064307 -57.551730 -8.069658 11.790146 8.093730 -21.224666 17.890804 -1.429623 -3.515206 5.782137 18.610141 10.679859 5.175465 61.674162 6.285438 14.365969 -5.373517 22.360665 13.955249 13.539263 3.370249 -5.248980 
0.010312 0.211635 1.003404 95.054450 1.338514 89.181139 4.417928 1.942708 -0.761893 1.083177 -9.028046 0.894870 -0.269795 6.545762 -3.352277 0.000000 -0.000000 0.000000 -0.719921 -4.246476 1.148525 -2.035860 0.799802 -0.507979 2.956055 -6.221755 -2.040097 0.000000 -0.000000 0.000000 0.021216 2.159730 2.619453 -0.752856 -3.085527 4.851653 -0.200627 -1.183649 -1.354459 -0.348982 -10.798867 -0.286703 7.427081 -9.044769 -5.280661 -23.518719 -6.176089 7.105165 -57.460137 -7.777548 11.597210 8.191851 -20.656345 17.784808 -0.965926 -3.741000 6.024795 18.717593 10.690212 5.197491 61.665622 6.457956 14.457620 -5.132398 22.300396 14.445990 13.325597 3.453765 -4.809392 
0.010945 0.211886 1.003366 94.967430 1.365351 89.173961 4.458739 1.837493 -0.640708 1.056750 -8.974982 0.831240 -0.214573 6.614124 -3.310953 0.000000 -0.000000 0.000000 -0.706180 -4.271969 1.193600 -2.051370 0.816319 -0.516641 3.035800 -6.226532 -2.041323 0.000000 -0.000000 0.000000 -0.040804 2.297563 2.715201 -0.729994 -3.037159 4.860966 -0.090093 -1.142216 -1.390688 -0.372916 -10.825645 -0.263831 7.519762 -8.973700 -5.403776 -23.627716 -6.139338 7.170832 -57.409778 -7.382150 11.534960 8.098326 -20.185829 17.480372 -0.474104 -4.002524 6.521707 18.745091 10.851617 5.240823 61.557307 6.353064 14.603655 -4.798306 22.536182 14.709733 13.151614 3.499222 -4.649129 
0.011262 0.212068 1.003290 94.931902 1.375159 89.259737 4.481113 1.862743 -0.704950 1.020457 -8.950159 0.830707 -0.277612 6.674068 -3.360725 0.000000 -0.000000 0.000000 -0.696789 -4.234793 1.149755 -2.068266 0.816727 -0.570712 3.012720 -6.237447 -2.044904 0.000000 -0.000000 0.000000 -0.104264 2.320778 2.638127 -0.711061 -2.948863 4.977565 -0.055197 -1.124180 -1.392855 -0.199332 -10.740789 -0.311901 7.503931 -8.934778 -5.495359 -23.554033 -5.996667 7.256672 -57.442206 -7.142238 11.539560 7.933744 -19.877264 17.825965 -0.999989 -3.929135 5.887937 18.774486 10.872815 5.337703 61.626470 6.623878 14.744885 -4.593780 22.455897 15.039683 13.048310 3.619384 -4.683438 
0.011412 0.212450 1.003206 94.971208 1.384614 89.379712 4.470525 1.975375 -0.820153 1.021789 -9.032526 0.811532 -0.259888 6.639192 -3.378981 0.000000 -0.000000 0.000000 -0.707641 -4.238608 1.052557 -2.063403 0.786960 -0.601555 2.985353 -6.212985 -2.071321 0.000000 -0.000000 0.000000 -0.088398 2.309279 2.733439 -0.741572 -2.834674 4.819559 -0.040917 -1.020943 -1.377554 -0.091623 -10.762529 -0.441994 7.586328 -9.014572 -5.413809 -23.543395 -5.865001 7.221783 -57.542312 -6.862927 11.582823 7.796995 -19.706878 18.128414 -0.993525 -3.758406 6.125164 18.730916 10.847342 5.325293 61.808514 6.634494 14.814276 -4.382016 22.522285 15.434206 12.895735 3.706443 -4.630209 
0.011668 0.212888 1.003193 94.990731 1.367517 89.464335 4.439837 2.003024 -0.863381 1.019359 -9.045913 0.748666 -0.284362 6.600488 -3.321764 0.000000 -0.000000 0.000000 -0.733947 -4.255971 1.021534 -2.087776 0.788903 -0.682961 2.979496 -6.250959 -2.009139 0.000000 -0.000000 0.000000 -0.078380 2.363537 2.710250 -0.750900 -2.747057 4.919819 -0.036419 -0.949708 -1.427819 -0.046643 -10.877256 -0.496291 7.590083 -9.081543 -5.466808 -23.621158 -5.827586 7.276553 -57.570258 -6.733078 11.587543 7.669391 -19.619351 18.365453 -1.258080 -3.555959 6.175557 18.732721 10.950864 5.278376 61.988645 6.563046 14.971080 -4.336474 22.672930 15.472288 13.092322 3.537764 -4.771425 
0.012063 0.213334 1.003175 95.036189 1.384263 89.526132 4.434307 1.971190 -0.851552 1.030428 -9.043754 0.657091 -0.280609 6.609165 -3.336535 0.000000 -0.000000 0.000000 -0.721858 -4.275572 1.021913 -2.126662 0.794092 -0.747539 3.009980 -6.259085 -2.000915 0.000000 -0.000000 0.000000 -0.065685 2.459174 2.689971 -0.715205 -2.696774 4.986439 0.001699 -0.913488 -1.461099 0.004170 -10.909521 -0.510838 7.586197 -9.098925 -5.452434 -23.738394 -5.885758 7.468113 -57.625895 -6.582163 11.702091 7.524966 -19.869471 18.950804 -1.180686 -3.712792 6.483129 18.664835 11.019954 5.348353 62.176146 6.516229 15.034641 -4.232212 22.943655 15.802220 13.080556 3.615540 -4.889183 
0.012541 0.213468 1.003170 95.093612 1.430663 89.511917 4.513885 1.797461 -0.720158 0.993478 -8.971248 0.486106 -0.221276 6.625999 -3.251390 0.000000 -0.000000 0.000000 -0.660621 -4.263990 1.102611 -2.185257 0.753906 -0.795434 3.075531 -6.321331 -2.011366 0.000000 -0.000000 0.000000 0.004744 2.585698 2.772823 -0.711314 -2.681947 5.037583 -0.016154 -0.891384 -1.532319 0.040710 -10.859104 -0.570920 7.580518 -9.156946 -5.234806 -23.717424 -5.949828 7.598839 -57.759066 -6.467601 11.894820 7.326234 -20.388776 20.032170 -1.177144 -4.065496 7.310102 18.652062 11.174798 5.445551 62.425767 6.455323 15.112929 -4.209775 23.138940 15.960289 13.063428 3.771669 -4.867071 
